<svg xmlns="http://www.w3.org/2000/svg" viewBox="0 0 512 512">
  <path fill="#FFD700" d="M256 128c-8.8 0-16-7.2-16-16V16c0-8.8 7.2-16 16-16s16 7.2 16 16v96c0 8.8-7.2 16-16 16zm0 384c-8.8 0-16-7.2-16-16v-96c0-8.8 7.2-16 16-16s16 7.2 16 16v96c0 8.8-7.2 16-16 16zm144-144c0 8.8-7.2 16-16 16H288c-8.8 0-16-7.2-16-16s7.2-16 16-16h96c8.8 0 16 7.2 16 16zM16 256c0 8.8-7.2 16-16 16s-16-7.2-16-16 7.2-16 16-16h96c8.8 0 16 7.2 16 16s-7.2 16-16 16H16zm366.6-101.7c-6.2 6.2-16.4 6.2-22.6 0l-67.9-67.9c-6.2-6.2-6.2-16.4 0-22.6s16.4-6.2 22.6 0l67.9 67.9c6.3 6.2 6.3 16.4 0 22.6zM129.4 357.7c-6.2 6.2-16.4 6.2-22.6 0l-67.9-67.9c-6.2-6.2-6.2-16.4 0-22.6s16.4-6.2 22.6 0l67.9 67.9c6.3 6.2 6.3 16.4 0 22.6zm0-203.4c6.2 6.2 6.2 16.4 0 22.6L61.5 244.8c-6.2 6.2-16.4 6.2-22.6 0s-6.2-16.4 0-22.6l67.9-67.9c6.2-6.2 16.4-6.2 22.6 0zm203.4 203.4c6.2 6.2 6.2 16.4 0 22.6l-67.9 67.9c-6.2 6.2-16.4 6.2-22.6 0s-6.2-16.4 0-22.6l67.9-67.9c6.2-6.3 16.4-6.3 22.6 0z"/>
  <circle fill="#8B4513" cx="256" cy="256" r="80"/>
</svg>

